#define bola13x13_width 13
#define bola13x13_height 13
static unsigned char bola13x13_bits[] = {
   0xf0, 0x01, 0xec, 0x06, 0xf2, 0x0d, 0xfa, 0x0a, 0xfd, 0x15, 0xbd, 0x12,
   0xff, 0x15, 0xaf, 0x12, 0x7d, 0x11, 0xaa, 0x08, 0x52, 0x08, 0x0c, 0x06,
   0xf0, 0x01 };
