#define bola_width 8
#define bola_height 8
static unsigned char bola_bits[] = {
   0x3c, 0x56, 0xab, 0x95, 0x8b, 0x81, 0x42, 0x3c };
