#define der1_width 16
#define der1_height 24
static unsigned char der1_bits[] = {
   0x00, 0x00, 0x80, 0x01, 0xc0, 0x03, 0xc0, 0x01, 0xc0, 0x3d, 0xe0, 0x7f,
   0xe0, 0x7f, 0xcc, 0x38, 0xd2, 0x07, 0xe2, 0x0f, 0xef, 0x2f, 0xe7, 0xec,
   0x67, 0xfb, 0x00, 0xe3, 0xf0, 0xcc, 0xf0, 0x0f, 0xb8, 0x1d, 0x40, 0x02,
   0x4c, 0x04, 0x3e, 0x64, 0x0e, 0x74, 0x0e, 0x7c, 0x1e, 0x3c, 0x1c, 0x1c };
