#define der2_width 15
#define der2_height 24
static unsigned char der2_bits[] = {
   0x80, 0x01, 0xc0, 0x03, 0xc0, 0x01, 0xc0, 0x3d, 0xe0, 0x7f, 0xe0, 0x7f,
   0xc0, 0x38, 0xc0, 0x07, 0xf8, 0x0f, 0xe4, 0x0f, 0xe2, 0x0c, 0x62, 0x6b,
   0x0f, 0x63, 0xf7, 0x6c, 0xf7, 0x0f, 0xf8, 0x1f, 0x40, 0x02, 0x40, 0x02,
   0x40, 0x02, 0x40, 0x02, 0x40, 0x02, 0xe0, 0x37, 0xe0, 0x6f, 0xe0, 0x37 };
