#define derrape_der_width 16
#define derrape_der_height 24
static unsigned char derrape_der_bits[] = {
   0x00, 0x00, 0x80, 0x01, 0xc0, 0x03, 0xc0, 0x01, 0xc0, 0x3d, 0xe0, 0x7f,
   0xe0, 0x7f, 0xcc, 0x38, 0xd2, 0x07, 0xe2, 0x0f, 0xef, 0x2f, 0xe7, 0xec,
   0x67, 0xbb, 0x00, 0xe3, 0xf0, 0xcc, 0xf0, 0x0f, 0xb8, 0x1d, 0x40, 0x02,
   0xc0, 0x06, 0x84, 0x6c, 0x98, 0x6e, 0xa2, 0x6f, 0x9c, 0x37, 0xa0, 0x17 };
