#define derrape_izq_width 16
#define derrape_izq_height 24
static unsigned char derrape_izq_bits[] = {
   0x00, 0x00, 0x80, 0x01, 0xc0, 0x03, 0x80, 0x03, 0xbc, 0x03, 0xfe, 0x07,
   0xfe, 0x07, 0x1c, 0x33, 0xe0, 0x4b, 0xf0, 0x47, 0xf4, 0xf7, 0x37, 0xe7,
   0xdd, 0xe6, 0xc7, 0x00, 0x33, 0x0f, 0xf0, 0x0f, 0xb8, 0x1d, 0x40, 0x02,
   0x60, 0x03, 0x36, 0x21, 0x76, 0x19, 0xf6, 0x45, 0xec, 0x39, 0xe8, 0x05 };
