#define huevo_width 8
#define huevo_height 8
static unsigned char huevo_bits[] = {
   0x18, 0x3c, 0x6e, 0x97, 0x8b, 0x95, 0x42, 0x3c };
