#define izq1_width 16
#define izq1_height 24
static unsigned char izq1_bits[] = {
   0x00, 0x00, 0x80, 0x01, 0xc0, 0x03, 0x80, 0x03, 0xbc, 0x03, 0xfe, 0x07,
   0xfe, 0x07, 0x1c, 0x33, 0xe0, 0x4b, 0xf0, 0x47, 0xf4, 0xf7, 0x37, 0xe7,
   0xdf, 0xe6, 0xc7, 0x00, 0x33, 0x0f, 0xf0, 0x0f, 0xb8, 0x1d, 0x40, 0x02,
   0x20, 0x32, 0x26, 0x7c, 0x2e, 0x70, 0x3e, 0x70, 0x3c, 0x78, 0x38, 0x38 };
