#define izq2_width 15
#define izq2_height 24
static unsigned char izq2_bits[] = {
   0xc0, 0x00, 0xe0, 0x01, 0xc0, 0x01, 0xde, 0x01, 0xff, 0x03, 0xff, 0x03,
   0x8e, 0x01, 0xf0, 0x01, 0xf8, 0x0f, 0xf8, 0x13, 0x98, 0x23, 0x6b, 0x23,
   0x63, 0x78, 0x9b, 0x77, 0xf8, 0x77, 0xfc, 0x0f, 0x20, 0x01, 0x20, 0x01,
   0x20, 0x01, 0x20, 0x01, 0x20, 0x01, 0xf6, 0x03, 0xfb, 0x03, 0xf6, 0x03 };
